<svg width="1080" height="360" viewBox="0 0 1080 360" fill="none" xmlns="http://www.w3.org/2000/svg" role="img" aria-labelledby="monoTitle monoDesc">
  <title id="monoTitle">Aether Monochrome Logo</title>
  <desc id="monoDesc">Monochrome logo with emblem and wordmark for print and high-contrast usage.</desc>
  <metadata>
    Copyright (c) 2026 Aarti S Ravikumar. All rights reserved.
  </metadata>

  <g>
    <circle cx="180" cy="180" r="132" fill="white" stroke="#111827" stroke-width="8"/>
    <circle cx="180" cy="180" r="124" stroke="#111827" stroke-width="12"/>

    <path d="M96 242C116 220 144 214 176 220V274C145 268 120 269 96 286V242Z" fill="#F9FAFB" stroke="#111827" stroke-width="4"/>
    <path d="M264 242C244 220 216 214 184 220V274C215 268 240 269 264 286V242Z" fill="#F9FAFB" stroke="#111827" stroke-width="4"/>
    <path d="M180 220V278" stroke="#111827" stroke-width="4" stroke-linecap="round"/>

    <path d="M180 218C182 188 194 169 210 154" stroke="#111827" stroke-width="7" stroke-linecap="round"/>
    <path d="M178 214C175 192 164 176 146 164" stroke="#111827" stroke-width="7" stroke-linecap="round"/>
    <path d="M210 154C212 178 198 195 180 201C183 181 194 166 210 154Z" fill="#111827"/>
    <path d="M146 164C160 176 168 192 164 208C148 202 139 186 146 164Z" fill="#111827"/>

    <path d="M88 154C118 129 146 120 180 120C214 120 242 129 272 154" stroke="#111827" stroke-width="6" stroke-linecap="round" stroke-dasharray="1 13"/>
    <circle cx="92" cy="154" r="9" fill="#111827"/>
    <circle cx="180" cy="118" r="10" fill="#111827"/>
    <circle cx="268" cy="154" r="9" fill="#111827"/>
  </g>

  <g transform="translate(360, 0)">
    <text x="0" y="170" fill="#111827" font-family="Inter, Avenir Next, Segoe UI, sans-serif" font-size="96" font-weight="800" letter-spacing="1">Aether</text>
    <text x="2" y="218" fill="#111827" font-family="Inter, Avenir Next, Segoe UI, sans-serif" font-size="31" font-weight="500" letter-spacing="0.6">Student Resilience Ecosystem</text>
    <rect x="0" y="242" width="512" height="8" rx="4" fill="#111827"/>
    <text x="0" y="296" fill="#374151" font-family="Inter, Avenir Next, Segoe UI, sans-serif" font-size="24" font-weight="500" letter-spacing="0.4">Privacy-first • Research-driven • Peer-powered</text>
  </g>
</svg>
